<?xml version="1.0" encoding="UTF-8"?>
<svg width="26px" height="26px" viewBox="0 0 26 26" version="1.1" xmlns="http://www.w3.org/2000/svg" xmlns:xlink="http://www.w3.org/1999/xlink">
    <!-- Generator: Sketch 49.2 (51160) - http://www.bohemiancoding.com/sketch -->
    <title>ic / 26px / profile_main_colo@3x</title>
    <desc>Created with Sketch.</desc>
    <defs></defs>
    <g id="ic-/-26px-/-profile_main_colo" stroke="none" stroke-width="1" fill="none" fill-rule="evenodd">
        <g id="ic_profile" transform="translate(5.000000, 4.000000)" fill="#000000">
            <path d="M8,6.5 C6.619,6.5 5.5,5.381 5.5,4 C5.5,2.619 6.619,1.5 8,1.5 C9.381,1.5 10.5,2.619 10.5,4 C10.5,5.381 9.381,6.5 8,6.5 M8,0 C5.791,0 4,1.791 4,4 C4,6.209 5.791,8 8,8 C10.209,8 12,6.209 12,4 C12,1.791 10.209,0 8,0" id="Fill-2"></path>
            <path d="M8,10.5 C11.59,10.5 14.5,13.41 14.5,17 L16,17 C16,12.582 12.418,9 8,9 C3.582,9 0,12.582 0,17 L1.5,17 C1.5,13.41 4.41,10.5 8,10.5" id="Fill-4"></path>
        </g>
    </g>
</svg>