<?xml version="1.0" encoding="UTF-8"?>
<svg width="26px" height="26px" viewBox="0 0 26 26" version="1.1" xmlns="http://www.w3.org/2000/svg" xmlns:xlink="http://www.w3.org/1999/xlink">
    <!-- Generator: Sketch 49.2 (51160) - http://www.bohemiancoding.com/sketch -->
    <title>ic / 26px / star_main_color@3x</title>
    <desc>Created with Sketch.</desc>
    <defs></defs>
    <g id="ic-/-26px-/-star_main_color" stroke="none" stroke-width="1" fill="none" fill-rule="evenodd">
        <g id="ic_star" transform="translate(3.000000, 3.000000)" fill="#000000">
            <path d="M13.5,11.5762 L14.326,16.3932 L10,14.1192 L5.674,16.3932 L6.5,11.5762 L3,8.1642 L7.837,7.4612 L10,3.0782 L12.163,7.4612 L17,8.1642 L13.5,11.5762 Z M19.203,8.3062 C19.785,7.7392 19.464,6.7502 18.659,6.6332 L13.411,5.8702 C13.331,5.8592 13.262,5.8082 13.227,5.7362 L10.879,0.9812 C10.52,0.2522 9.48,0.2522 9.121,0.9812 L6.773,5.7362 C6.738,5.8082 6.669,5.8592 6.589,5.8702 L1.341,6.6332 C0.536,6.7502 0.215,7.7392 0.797,8.3062 L4.595,12.0082 C4.652,12.0642 4.679,12.1452 4.665,12.2242 L3.769,17.4512 C3.631,18.2532 4.473,18.8642 5.192,18.4852 L9.886,16.0172 C9.958,15.9802 10.042,15.9802 10.114,16.0172 L14.808,18.4852 C15.527,18.8642 16.369,18.2532 16.231,17.4512 L15.335,12.2242 C15.321,12.1452 15.348,12.0642 15.405,12.0082 L19.203,8.3062 Z" id="Fill-2"></path>
        </g>
    </g>
</svg>