<?xml version="1.0" encoding="UTF-8"?>
<svg width="26px" height="26px" viewBox="0 0 26 26" version="1.1" xmlns="http://www.w3.org/2000/svg" xmlns:xlink="http://www.w3.org/1999/xlink">
    <!-- Generator: Sketch 49.2 (51160) - http://www.bohemiancoding.com/sketch -->
    <title>ic / 26px / wallet_main_color@3x</title>
    <desc>Created with Sketch.</desc>
    <defs></defs>
    <g id="ic-/-26px-/-wallet_main_color" stroke="none" stroke-width="1" fill="none" fill-rule="evenodd">
        <g id="ic_wallet" transform="translate(5.000000, 5.000000)" fill="#000000">
            <path d="M14.5,8.5 L14.5,10.5 L13,10.5 C12.449,10.5 12,10.051 12,9.5 C12,8.949 12.449,8.5 13,8.5 L14.5,8.5 Z M14.5,13.5 L2.259,13.5 C1.84,13.5 1.5,13.16 1.5,12.741 L1.5,4.789 C1.807,4.923 2.144,5 2.5,5 L13.736,5 L14,5 L14.5,5 L14.5,7 L13,7 C11.619,7 10.5,8.119 10.5,9.5 C10.5,10.881 11.619,12 13,12 L14.5,12 L14.5,13.5 Z M2.5,1.5 L12.5,1.5 L12.5,3.5 L2.5,3.5 C1.949,3.5 1.5,3.051 1.5,2.5 C1.5,1.949 1.949,1.5 2.5,1.5 Z M16,7 L16,3.5 L14,3.5 L14,0 L2.5,0 C1.119,0 0,1.119 0,2.5 L0,12.741 C0,13.989 1.011,15 2.259,15 L16,15 L16,12 L16,7 Z" id="Fill-2"></path>
        </g>
    </g>
</svg>