<?xml version="1.0" encoding="utf-8"?>
<!-- Generator: Adobe Illustrator 19.0.0, SVG Export Plug-In . SVG Version: 6.00 Build 0)  -->
<svg version="1.1" id="Layer_1" xmlns="http://www.w3.org/2000/svg" xmlns:xlink="http://www.w3.org/1999/xlink" x="0px" y="0px"
	 viewBox="-264 387.9 67 67" style="enable-background:new -264 387.9 67 67;" xml:space="preserve">
<style type="text/css">
	.st0{fill:#FFFFFF;}
	.st1{enable-background:new    ;}
</style>
<g id="QuickLook_appMain_withText" transform="translate(-281.000000, -492.000000)">
	<g id="Group" transform="translate(285.000000, 494.000000)">
		<g id="Group-2" transform="translate(16.000000, 12.000000)">
			<path id="Page-1" class="st0" d="M-253.7,393.8v-5.9l-10.3,10.3l10.3,10.3v-6c7.3,0,12.5,2.3,16.1,7.5
				C-239.1,402.6-243.5,395.2-253.7,393.8"/>
			<g class="st1">
				<path class="st0" d="M-261.6,422.5h-0.8v-5.8h1.2v4.8c1.2,0,2.6-0.1,3.6-0.3l0.1,0.9C-258.6,422.4-260.5,422.5-261.6,422.5z
					 M-255.8,419.2h1.3v1h-1.3v4.5h-1.2v-8.9h1.2V419.2z"/>
				<path class="st0" d="M-253.4,423.1l-0.7-0.9c1.9-0.9,3.3-2.8,3.4-4.5h-2.9v-1h4.2C-249.5,419.4-250.7,421.6-253.4,423.1z
					 M-247.1,420.2v4.5h-1.2v-8.9h1.2v3.4h1.3v1H-247.1z"/>
				<path class="st0" d="M-244.8,423.1l-0.7-0.9c1.9-0.9,3.3-2.7,3.4-4.5h-2.9v-1h4.2C-240.8,419.4-242,421.6-244.8,423.1z
					 M-239.2,424.7v-8.9h1.2v8.9H-239.2z"/>
			</g>
		</g>
	</g>
</g>
</svg>
