<svg id="레이어_1" data-name="레이어 1" xmlns="http://www.w3.org/2000/svg" viewBox="0 0 34.83 35.17"><defs><style>.cls-1{fill:#9e9e9e;}</style></defs><title>icon_home</title><path class="cls-1" d="M148.26,752.61l-16.92-16.25-0.07,0-0.09-.05-0.1,0-0.09,0-0.09,0-0.1,0-0.08.05-0.08,0-16.92,16.25a0.5,0.5,0,1,0,.69.72l4.07-3.91v15.47a6.51,6.51,0,0,0,6.5,6.5h12a6.51,6.51,0,0,0,6.5-6.5V749.42l4.07,3.91A0.5,0.5,0,1,0,148.26,752.61Zm-5.76-3.89v16.17a5.51,5.51,0,0,1-5.5,5.5H125a5.51,5.51,0,0,1-5.5-5.5V748.72a0.49,0.49,0,0,0-.05-0.21L131,737.42l11.55,11.1A0.49,0.49,0,0,0,142.5,748.72Z" transform="translate(-113.58 -736.22)"/></svg>