<svg id="레이어_1" data-name="레이어 1" xmlns="http://www.w3.org/2000/svg" viewBox="0 0 30.77 27.24"><defs><style>.cls-1{fill:#9e9e9e;}</style></defs><title>icon_myPage</title><path class="cls-1" d="M374.67,751c-0.86-3.38-3.57-7.21-7.66-8.16l-0.57-.12a7.73,7.73,0,0,1-1.11-.28,2,2,0,0,1-1.27-1.29,1.5,1.5,0,0,1,.26-1.38,0.5,0.5,0,0,0,.09-0.35,12.24,12.24,0,0,0,2.21-6.75c0-4.57-3.29-8.28-7.33-8.28s-7.33,3.71-7.33,8.28a12.24,12.24,0,0,0,2.23,6.79,0.49,0.49,0,0,0,.09.31,1.51,1.51,0,0,1,.26,1.38,2,2,0,0,1-1.26,1.29,7.75,7.75,0,0,1-1.11.28l-0.57.12c-4.1,1-6.8,4.79-7.67,8.16a0.5,0.5,0,0,0,.36.61l0.12,0a0.5,0.5,0,0,0,.48-0.38c0.79-3.08,3.23-6.58,6.92-7.44l0.54-.12a8.66,8.66,0,0,0,1.25-.32,3.06,3.06,0,0,0,1.88-1.95,2.57,2.57,0,0,0,.08-0.42,5.12,5.12,0,0,0,7.45,0,2.58,2.58,0,0,0,.08.44A3.07,3.07,0,0,0,365,743.4a8.6,8.6,0,0,0,1.25.32l0.54,0.12c3.69,0.86,6.13,4.35,6.92,7.44a0.5,0.5,0,0,0,.48.38l0.12,0A0.5,0.5,0,0,0,374.67,751Zm-15.38-9.39c-3.41,0-6.33-4.92-6.33-8.95s2.84-7.28,6.33-7.28,6.33,3.27,6.33,7.28S362.7,741.63,359.29,741.63Z" transform="translate(-343.91 -724.4)"/></svg>