<svg id="레이어_1" data-name="레이어 1" xmlns="http://www.w3.org/2000/svg" viewBox="0 0 27.5 35.81"><defs><style>.cls-1{fill:#9e9e9e;}</style></defs><title>icon_orderList</title><path class="cls-1" d="M249.86,739v-2.33a0.5,0.5,0,0,0-1,0V739h-6.12v-2.31a0.5,0.5,0,0,0-1,0V739h-6.12v-2.31a0.5,0.5,0,0,0-1,0V739a6.5,6.5,0,0,0-6,6.47v20a6.51,6.51,0,0,0,6.5,6.5h14.5a6.51,6.51,0,0,0,6.5-6.5v-20A6.5,6.5,0,0,0,249.86,739Zm5.25,26.49a5.51,5.51,0,0,1-5.5,5.5h-14.5a5.51,5.51,0,0,1-5.5-5.5v-20a5.51,5.51,0,0,1,5-5.47v2.29a0.5,0.5,0,0,0,1,0V740h6.13v2.31a0.5,0.5,0,0,0,1,0V740h6.13v2.31a0.5,0.5,0,0,0,1,0V740a5.5,5.5,0,0,1,5.25,5.49v20Z" transform="translate(-228.61 -736.16)"/><path class="cls-1" d="M250.86,745.48H233.61a0.5,0.5,0,0,0,0,1h17.25A0.5,0.5,0,0,0,250.86,745.48Z" transform="translate(-228.61 -736.16)"/><path class="cls-1" d="M250.86,750.31H233.61a0.5,0.5,0,0,0,0,1h17.25A0.5,0.5,0,0,0,250.86,750.31Z" transform="translate(-228.61 -736.16)"/><path class="cls-1" d="M250.86,755.14H233.61a0.5,0.5,0,0,0,0,1h17.25A0.5,0.5,0,0,0,250.86,755.14Z" transform="translate(-228.61 -736.16)"/><path class="cls-1" d="M250.86,760H233.61a0.5,0.5,0,0,0,0,1h17.25A0.5,0.5,0,0,0,250.86,760Z" transform="translate(-228.61 -736.16)"/><path class="cls-1" d="M250.86,764.81H233.61a0.5,0.5,0,0,0,0,1h17.25A0.5,0.5,0,0,0,250.86,764.81Z" transform="translate(-228.61 -736.16)"/></svg>