<?xml version="1.0" encoding="utf-8"?>
<!-- Generator: Adobe Illustrator 22.1.0, SVG Export Plug-In . SVG Version: 6.00 Build 0)  -->
<svg version="1.1" id="Layer_1" xmlns="http://www.w3.org/2000/svg" xmlns:xlink="http://www.w3.org/1999/xlink" x="0px" y="0px"
	 viewBox="0 0 37.8 35.7" style="enable-background:new 0 0 37.8 35.7;" xml:space="preserve">
<style type="text/css">
	.st0{fill:#3E2A2E;}
</style>
<g>
	<path class="st0" d="M3.7,16.8h6.7v6.6H3.7c-1.1,0-2-0.3-2.7-0.9c-0.7-0.6-1-1.4-1-2.4c0-1,0.3-1.8,1.1-2.4
		C1.8,17.1,2.7,16.8,3.7,16.8z"/>
	<path class="st0" d="M35.1,19.7c-2,2.5-5,3.7-8.8,3.7h-4.5v-6.6h2.5c1.9,0,3.2-0.5,4.2-1.5c0.9-0.9,1.4-2.2,1.4-3.8
		C29.8,10,29.3,8.8,28.3,8c-1-0.9-2.2-1.3-3.6-1.3h-4.8v24.7c0,1.2-0.3,2.2-1,3.1c-0.7,0.8-1.6,1.2-2.8,1.2c-1.2,0-2.1-0.4-2.8-1.2
		c-0.7-0.8-1.1-1.8-1.1-3.1V4.7c0-1.5,0.4-2.6,1.2-3.5c0.8-0.8,2-1.2,3.5-1.2h8.3c3.9,0,6.9,1,8.9,2.9c0.7,0.7,1.4,1.5,1.9,2.5
		c0.6,0.9,1,1.9,1.3,3c0.3,1,0.4,2.1,0.4,3.1C37.8,14.8,36.9,17.6,35.1,19.7z"/>
</g>
</svg>
