<?xml version="1.0" encoding="utf-8"?>
<!-- Generator: Adobe Illustrator 19.2.1, SVG Export Plug-In . SVG Version: 6.00 Build 0)  -->
<svg version="1.1" id="레이어_1" xmlns="http://www.w3.org/2000/svg" xmlns:xlink="http://www.w3.org/1999/xlink" x="0px"
	 y="0px" viewBox="0 0 34.3 27.5" style="enable-background:new 0 0 34.3 27.5;" xml:space="preserve">
<style type="text/css">
	.st0{fill:#9E9E9E;}
</style>
<title>icon_wallet</title>
<g>
	<path class="st0" d="M32.2,8.7V6.5c0-3.6-2.9-6.5-6.5-6.5H6.5C2.9,0,0,2.9,0,6.5V21c0,3.6,2.9,6.5,6.5,6.5h19.2
		c3.6,0,6.5-2.9,6.5-6.5v-1.9c1.4-1.2,2.1-3,2.1-4.8v-0.9C34.3,11.6,33.6,9.9,32.2,8.7z M31.2,20.9l0,0.1c0,3-2.5,5.5-5.5,5.5H6.5
		C3.5,26.5,1,24,1,21V6.5C1,3.5,3.5,1,6.5,1h19.2c3,0,5.5,2.5,5.5,5.5v1.4c-1-0.6-2.2-1-3.4-1h-7.8c-3.6,0-6.5,2.9-6.5,6.5v0.9
		c0,3.6,2.9,6.5,6.5,6.5h7.8c1.2,0,2.4-0.4,3.4-1V20.9z M33.3,14.3L33.3,14.3c0,1.2-0.4,2.4-1.1,3.4c-0.3,0.4-0.6,0.7-1,1
		c-1,0.8-2.1,1.2-3.4,1.2h-7.8c-3,0-5.5-2.5-5.5-5.5v-0.9c0-3,2.5-5.5,5.5-5.5h7.8c1.2,0,2.4,0.4,3.4,1.2c0.4,0.3,0.7,0.6,1,1
		c0.7,1,1.1,2.1,1.1,3.3V14.3z"/>
	<circle class="st0" cx="19.6" cy="14.1" r="1.9"/>
</g>
</svg>
