<svg id="레이어_1" data-name="레이어 1" xmlns="http://www.w3.org/2000/svg" viewBox="0 0 34.54 27.63"><defs><style>.cls-1{fill:#9e9e9e;}</style></defs><title>icon_wallet2</title><path class="cls-1" d="M32.36,8.82V6.63a6.49,6.49,0,0,0-6.5-6.5H6.66a6.49,6.49,0,0,0-6.5,6.5v14.5a6.49,6.49,0,0,0,6.5,6.5h19.2a6.49,6.49,0,0,0,6.5-6.5v-1.9a6.29,6.29,0,0,0,2.1-4.8v-0.9A6.09,6.09,0,0,0,32.36,8.82Zm-1,12.2v0.1a5.55,5.55,0,0,1-5.5,5.5H6.66a5.55,5.55,0,0,1-5.5-5.5V6.63a5.55,5.55,0,0,1,5.5-5.5h19.2a5.55,5.55,0,0,1,5.5,5.5V8A6.74,6.74,0,0,0,28,7h-7.8a6.49,6.49,0,0,0-6.5,6.5v0.9a6.49,6.49,0,0,0,6.5,6.5H28a6.74,6.74,0,0,0,3.4-1V21Zm2.1-6.6h0a6,6,0,0,1-1.1,3.4,4.74,4.74,0,0,1-1,1A5.23,5.23,0,0,1,28,20h-7.8a5.55,5.55,0,0,1-5.5-5.5v-0.9a5.55,5.55,0,0,1,5.5-5.5H28a5.43,5.43,0,0,1,3.4,1.2,4.74,4.74,0,0,1,1,1,5.68,5.68,0,0,1,1.1,3.3v0.8Z"/><circle class="cls-1" cx="19.76" cy="14.23" r="1.9"/></svg>