<?xml version="1.0" encoding="utf-8"?>
<!-- Generator: Adobe Illustrator 19.0.0, SVG Export Plug-In . SVG Version: 6.00 Build 0)  -->
<svg version="1.1" id="Layer_1" xmlns="http://www.w3.org/2000/svg" xmlns:xlink="http://www.w3.org/1999/xlink" x="0px" y="0px"
	 viewBox="-264 387.9 67 67" style="enable-background:new -264 387.9 67 67;" xml:space="preserve">
<style type="text/css">
	.st0{fill:#FFFFFF;}
</style>
<g id="Shop" transform="translate(-289.000000, -564.000000)">
	<g id="Group" transform="translate(293.000000, 566.000000)">
		<g>
			<path class="st0" d="M-237.8,425.8c-1.4,0-2.6,1.2-2.6,2.6c0,1.4,1.1,2.6,2.6,2.6c1.4,0,2.6-1.2,2.6-2.6
				C-235.3,427-236.4,425.8-237.8,425.8z M-237.8,429.5c-0.6,0-1.1-0.5-1.1-1.1c0-0.6,0.5-1.1,1.1-1.1c0.6,0,1.1,0.5,1.1,1.1
				C-236.7,429-237.2,429.5-237.8,429.5z"/>
			<path class="st0" d="M-228.9,425.8c-1.4,0-2.6,1.2-2.6,2.6c0,1.4,1.2,2.6,2.6,2.6s2.6-1.2,2.6-2.6
				C-226.3,427-227.4,425.8-228.9,425.8z M-228.9,429.5c-0.6,0-1.1-0.5-1.1-1.1c0-0.6,0.5-1.1,1.1-1.1c0.6,0,1.1,0.5,1.1,1.1
				C-227.7,429-228.2,429.5-228.9,429.5z"/>
			<path class="st0" d="M-238.5,413.7h10.2c0.4,0,0.7-0.3,0.7-0.7c0-0.4-0.3-0.7-0.7-0.7h-10.2c-0.4,0-0.7,0.3-0.7,0.7
				C-239.2,413.3-238.9,413.7-238.5,413.7z"/>
			<path class="st0" d="M-228.8,416h-9.1c-0.4,0-0.7,0.3-0.7,0.7c0,0.4,0.3,0.7,0.7,0.7h9.1c0.4,0,0.7-0.3,0.7-0.7
				S-228.4,416-228.8,416z"/>
			<path class="st0" d="M-221.3,409.1c-0.3-0.3-0.7-0.5-1.1-0.5h-22.2l-0.4-2.2c-0.1-0.5-0.4-0.8-0.8-1l-3.1-1.4
				c-0.4-0.2-0.8,0-0.9,0.4c-0.2,0.4,0,0.8,0.4,0.9l3.1,1.4l3.4,16.9c0.1,0.7,0.7,1.1,1.4,1.1h17.1c0.4,0,0.7-0.3,0.7-0.7
				c0-0.4-0.3-0.7-0.7-0.7h-17.1l-0.4-2.1h17.6c0.7,0,1.3-0.5,1.4-1.1l2-9.7C-220.9,409.8-221,409.4-221.3,409.1z M-224.4,419.7
				h-17.9l-2-9.7h21.9L-224.4,419.7z"/>
		</g>
	</g>
</g>
</svg>
