<svg id="레이어_1" data-name="레이어 1" xmlns="http://www.w3.org/2000/svg" viewBox="0 0 196.3 201"><defs><style>.cls-1{fill:#fff;}</style></defs><title>웨이티코인</title><path class="cls-1" d="M50.16,109a66.26,66.26,0,0,0,5.69,26.7A57.74,57.74,0,0,0,71,156.14a32.46,32.46,0,0,0-15.21,13.15,40.65,40.65,0,0,0-6,21.4v8.83a99.51,99.51,0,0,1-24.83-34.35,113.39,113.39,0,0,1-9.52-45Q16,78.8,39.07,50.73T97.66,19.52l14.13,0.39a75.71,75.71,0,0,1,26.89,8.54,92.32,92.32,0,0,1,22.77,17.37A102.61,102.61,0,0,1,182,78.41a111.46,111.46,0,0,1,7.75,40.83,113,113,0,0,1-6.38,38.28,101.52,101.52,0,0,1-18,31.6A70.28,70.28,0,0,0,158.31,171q-4.32-7.36-9.81-10.11A29.86,29.86,0,0,0,134.36,154a57.17,57.17,0,0,0,13.45-20,66.86,66.86,0,0,0,4.81-25.52,64,64,0,0,0-4.71-24.34,27.06,27.06,0,0,0,4.71-15.31q-0.4-10.6-6.48-17.47A20.67,20.67,0,0,0,131,44.05a21.81,21.81,0,0,0-8.73,2.16,18.29,18.29,0,0,0-6.77,5.69,45.05,45.05,0,0,0-14.33-2.36A42,42,0,0,0,86.86,52.1a20,20,0,0,0-7-5.69,19.26,19.26,0,0,0-8.54-2,20.41,20.41,0,0,0-15.21,7.36q-6,7-6.18,17.57a26.15,26.15,0,0,0,4.71,15.11A67.92,67.92,0,0,0,50.16,109Zm5.3-39.85a20.11,20.11,0,0,1,4.71-13,14.73,14.73,0,0,1,11.19-5.5,15.45,15.45,0,0,1,9.81,3.73A58.17,58.17,0,0,0,67.53,64.57a54,54,0,0,0-9.91,13.64A19.9,19.9,0,0,1,55.46,69.18Zm91.86,39.45a60.32,60.32,0,0,1-6,26.11,49.07,49.07,0,0,1-15.8,18.84q-1.77,1.18-3.53,2.16l-1.77,1.18,0.59-2.75v-0.39a3.3,3.3,0,0,0-.88-2.75,2.53,2.53,0,0,0-2.65-.79l-23.36,8.83L78.42,146.91a2.56,2.56,0,0,0-2.45-.29,2.66,2.66,0,0,0-1.67,1.86l-0.59,2a51.9,51.9,0,0,1-13.05-18,58.71,58.71,0,0,1-5-23.46A60,60,0,0,1,59,89.2l1-2.94,1.37-2.94A46.61,46.61,0,0,1,71,69.38,49.75,49.75,0,0,1,84.9,59.56l2.75-1.18,2.75-.79A38.48,38.48,0,0,1,103,56.13a43.26,43.26,0,0,1,12.56,2.45l1.77,0.79,1.18-1.77a14.89,14.89,0,0,1,5.4-5.1,16.48,16.48,0,0,1,7.16-2,15.17,15.17,0,0,1,11.29,5.4A19,19,0,0,1,146.93,69a19.37,19.37,0,0,1-4.12,12.56l-1.37,1.57,1,2A62.71,62.71,0,0,1,147.32,108.63ZM114.15,157.9l-7.26,30.82L93.14,171.25A3.25,3.25,0,0,0,91,170.07a3.29,3.29,0,0,0-1,.2l-18.84,8,7.07-23.75L92,165.16a2.47,2.47,0,0,0,2.36.39l1.57-.59a6.2,6.2,0,0,1,1.37-.59ZM72.34,99.41a14.1,14.1,0,0,0,1.18,5.2q1,2.06,2.55,2t2.65-2.16a10.7,10.7,0,0,0,1.08-5,10.08,10.08,0,0,0-2-6.67,4.33,4.33,0,0,0-1.77-.79,3.61,3.61,0,0,0-2.36,1.77A12.58,12.58,0,0,0,72.34,99.41Zm37.49,28.46a2.44,2.44,0,0,0,.79-3.34,2.1,2.1,0,0,0-1.18-1.28,2,2,0,0,0-1.77.29Q98,130,90.59,130.62V122a6.15,6.15,0,0,0,3.14-5.5,7,7,0,0,0-1.67-4.22,5,5,0,0,0-7.46,0,6.15,6.15,0,0,0-1.47,4.22,5.87,5.87,0,0,0,3.14,5.5v8.44L84.7,130a10.88,10.88,0,0,1-6.48-5.3,2.06,2.06,0,0,0-1.28-1.28,2.11,2.11,0,0,0-1.67.1,2.85,2.85,0,0,0-1,3.53,15,15,0,0,0,9,7.66,17.32,17.32,0,0,0,5.89,1Q98.24,135.72,109.83,127.87ZM90.2,177.14L99,188.33q-6.67,10-11,16.68l-4.51,7.07a47.82,47.82,0,0,1-4.51-15,65.7,65.7,0,0,1-.2-15.21Zm18.45-70.66q1.57,0,2.65-2.06a10.46,10.46,0,0,0,1-5.2A13.13,13.13,0,0,0,111.2,94q-1-2.06-2.55-2.06T106.1,94a14.28,14.28,0,0,0,0,10.4Q107.08,106.47,108.65,106.47Zm34.55,59.48q5.3,0.2,10.11,7.56t7.75,20.71a84.14,84.14,0,0,1-37.69,23q0.59-23.36,6.48-37.1T143.2,165.95Zm19.24,36.12v0.2l13.74-.2a78.4,78.4,0,0,1-19.33,12.37,75.25,75.25,0,0,1-22.08,6.08A91.51,91.51,0,0,0,162.43,202.07Zm1.37-162.53a96.81,96.81,0,0,0-25.32-18.25,79,79,0,0,1,20.12,6.58,86.83,86.83,0,0,1,17.76,11.48ZM168.32,196a109.86,109.86,0,0,0,20.81-36.71h16.1a101.3,101.3,0,0,1-22.38,36.51h-7.26Q169.11,196,168.32,196ZM182.85,45.62a101.27,101.27,0,0,1,16.49,22.77l-15.11.2A104.39,104.39,0,0,0,169.5,45.82h6.67Q182.06,45.63,182.85,45.62Zm12.56,67.52a120.56,120.56,0,0,0-8.64-38.28h15.51a110.18,110.18,0,0,1,9.23,38.28h-16.1Zm0.2,6.28h16.1v0.79A111.47,111.47,0,0,1,207.19,153h-16.1a124.4,124.4,0,0,0,4.51-33.37v-0.2Z" transform="translate(-15.41 -19.52)"/></svg>