<svg xmlns="http://www.w3.org/2000/svg" xmlns:xlink="http://www.w3.org/1999/xlink" width="24" height="20" viewBox="0 0 24 20">
    <defs>
        <path id="a" d="M0 .009h24v9.324H0z"/>
    </defs>
    <g fill="none" fill-rule="evenodd">
        <path fill="#6441A5" d="M22.061 16.185a1.23 1.23 0 0 1-1.237 1.22H3.176a1.23 1.23 0 0 1-1.237-1.22V3.132c0-.673.555-1.22 1.237-1.22h17.648a1.23 1.23 0 0 1 1.237 1.22v13.053zM20.824 0H3.176C1.425 0 0 1.405 0 3.132v13.053c0 1.727 1.425 3.132 3.176 3.132h17.648c1.751 0 3.176-1.405 3.176-3.132V3.132C24 1.405 22.575 0 20.824 0z"/>
        <g transform="translate(0 2.341)">
            <mask id="b" fill="#fff">
                <use xlink:href="#a"/>
            </mask>
            <path fill="#6441A5" d="M23.825.408a.992.992 0 0 0-1.35-.23L12 7.255 1.525.178a.992.992 0 0 0-1.35.23.915.915 0 0 0 .239 1.303l11.03 7.453a.992.992 0 0 0 1.112 0l11.03-7.453a.915.915 0 0 0 .239-1.303" mask="url(#b)"/>
        </g>
    </g>
</svg>
