<svg xmlns="http://www.w3.org/2000/svg" width="13" height="24" viewBox="0 0 13 24">
    <path fill="#6441A5" fill-rule="evenodd" d="M12.52.005L9.4 0C5.894 0 3.628 2.32 3.628 5.907v2.724H.488A.488.488 0 0 0 0 9.12v3.948c0 .272.22.487.489.487h3.14v9.958c0 .272.22.488.488.488h4.094c.272 0 .488-.22.488-.488v-9.958h3.67c.274 0 .49-.22.49-.487V9.119a.485.485 0 0 0-.146-.347.488.488 0 0 0-.348-.145h-3.67V6.32c0-1.111.263-1.674 1.715-1.674h2.1c.274 0 .49-.22.49-.487V.492a.477.477 0 0 0-.48-.487z"/>
</svg>
