<?xml version="1.0" encoding="UTF-8"?>
<svg width="26px" height="26px" viewBox="0 0 26 26" version="1.1" xmlns="http://www.w3.org/2000/svg" xmlns:xlink="http://www.w3.org/1999/xlink">
    <!-- Generator: Sketch 49.2 (51160) - http://www.bohemiancoding.com/sketch -->
    <title>ic / 26px / star_main@3x</title>
    <desc>Created with Sketch.</desc>
    <defs></defs>
    <g id="ic-/-26px-/-star_main" stroke="none" stroke-width="1" fill="none" fill-rule="evenodd">
        <g id="ic_star" transform="translate(3.000000, 3.000000)" fill="#C5C3C3">
            <path d="M10,0.4341 C9.65,0.4341 9.3,0.6161 9.121,0.9811 L6.773,5.7361 C6.738,5.8091 6.669,5.8591 6.589,5.8711 L1.341,6.6331 C0.536,6.7501 0.215,7.7391 0.797,8.3061 L4.595,12.0081 C4.652,12.0641 4.679,12.1451 4.665,12.2251 L3.769,17.4521 C3.66,18.0851 4.164,18.6011 4.735,18.6011 C4.886,18.6011 5.042,18.5641 5.192,18.4851 L9.886,16.0171 C9.921,15.9991 9.961,15.9901 10,15.9901 C10.039,15.9901 10.079,15.9991 10.114,16.0171 L14.808,18.4851 C14.958,18.5641 15.114,18.6011 15.265,18.6011 C15.836,18.6011 16.34,18.0851 16.231,17.4521 L15.335,12.2251 C15.321,12.1451 15.348,12.0641 15.405,12.0081 L19.203,8.3061 C19.785,7.7391 19.464,6.7501 18.659,6.6331 L13.411,5.8711 C13.331,5.8591 13.262,5.8091 13.227,5.7361 L10.879,0.9811 C10.7,0.6161 10.35,0.4341 10,0.4341 M9.994,1.4451 L12.33,6.1791 C12.511,6.5461 12.862,6.8011 13.268,6.8601 L18.505,7.5901 L14.707,11.2911 C14.414,11.5781 14.28,11.9901 14.349,12.3941 L15.273,17.6011 L10.58,15.1331 C10.402,15.0391 10.201,14.9901 10,14.9901 C9.799,14.9901 9.598,15.0391 9.42,15.1331 L4.754,17.6211 L5.651,12.3941 C5.72,11.9901 5.586,11.5781 5.293,11.2911 L1.485,7.6221 L6.732,6.8601 C7.138,6.8011 7.489,6.5461 7.67,6.1791 L9.994,1.4451" id="Fill-2"></path>
        </g>
    </g>
</svg>